<svg xmlns="http://www.w3.org/2000/svg" width="118" height="20.91" viewBox="0 0 118 20.91">
  <g id="logo-01" transform="translate(-6.711 -6.561)">
    <path id="Path_38" data-name="Path 38" d="M856.826,6.73l-6.141,14.06L845.245,8.313a2.7,2.7,0,0,0-2.469-1.583h-4.1l1.613,3.595,7.718,17.283h3.074a3.507,3.507,0,0,0,3.227-2.085l8.4-18.792Z" transform="translate(-761.796 -0.156)" fill="#0072a4"/>
    <path id="Path_39" data-name="Path 39" d="M1205.736,15.339l-2.881-.648c-1.546-.317-2.369-.8-2.369-1.889,0-1.3,1.181-2,2.935-2a3.058,3.058,0,0,1,2.879,1.338,2.455,2.455,0,0,0,2.141,1.2h3.474a6.612,6.612,0,0,0-1.418-3.682,1.828,1.828,0,0,0-.2-.261,1.309,1.309,0,0,0-.2-.207c-1.856-1.957-4.794-2.509-7.007-2.509-4.849,0-8.182,2.537-8.182,6.536,0,3.185,1.9,5.046,5.969,5.9l3.389.73c1.759.331,2.184,1.034,2.184,1.71,0,1.09-.993,1.779-2.907,1.779a4.332,4.332,0,0,1-3.914-1.738,2.51,2.51,0,0,0-2.082-1.1h-3.458a7.293,7.293,0,0,0,1.361,3.722,2.42,2.42,0,0,0,.337.414c1.716,2.024,4.566,2.936,7.6,2.936,5.163,0,8.55-2.495,8.55-6.507C1211.944,17.614,1209.491,16.139,1205.736,15.339Z" transform="translate(-1087.229 -0.11)" fill="#0072a4"/>
    <path id="Path_40" data-name="Path 40" d="M1127.19,6.76V27.652h2.676a2.624,2.624,0,0,0,2.662-2.588V6.76Z" transform="translate(-1025.971 -0.183)" fill="#0072a4"/>
    <path id="Path_41" data-name="Path 41" d="M1269.557,254.25v.014h-.337A2.549,2.549,0,0,0,1269.557,254.25Z" transform="translate(-1156.022 -226.798)" fill="#fff"/>
    <path id="Path_42" data-name="Path 42" d="M20.639,6.729h-2.53A3.815,3.815,0,0,0,14.59,9.006L13.009,12.74l-.014.014L8.084,24.368l-.1.246L6.71,27.621h3.475a2.354,2.354,0,0,0,2.158-1.394l3.18-7.463L17.5,14.105l.576-1.365.547,1.377.665,1.654,1.528,3.782.03.067H18.784a1.315,1.315,0,0,0-1.212.795.051.051,0,0,0-.014.029L16.11,24.038h6.519l.008.021,1.449,3.565h5.663L21.63,9Z" transform="translate(0 -0.155)" fill="#274471"/>
    <path id="Path_43" data-name="Path 43" d="M663.819,8.973,662.826,6.7H660.3a3.817,3.817,0,0,0-3.52,2.277L655.2,12.713l-.015.014-4.909,11.614-.1.246-1.274,3h3.474a2.356,2.356,0,0,0,2.161-1.393l3.179-7.463,1.981-4.658.575-1.365.547,1.38.666,1.654,1.523,3.782.029.066H660.97a1.317,1.317,0,0,0-1.215.792.051.051,0,0,0-.014.029l-1.448,3.593h6.515l.008.021,1.449,3.565h5.67Z" transform="translate(-588.024 -0.127)" fill="#274471"/>
    <path id="Path_44" data-name="Path 44" d="M709.274,77.98h-.014V78Z" transform="translate(-643.292 -65.396)" fill="#fff"/>
    <path id="Path_45" data-name="Path 45" d="M295.492,7.067a13.021,13.021,0,0,0-3.365-.412H283.48v20.9h2.676a2.642,2.642,0,0,0,2.676-2.6v-2.73h2.425v.013h.448c.506,0,.976-.029,1.434-.072a12.129,12.129,0,0,0,1.848-.3c3.933-.935,6.269-3.653,6.269-7.549A7.166,7.166,0,0,0,295.492,7.067Zm-6.659,4.166h3.2a5.988,5.988,0,0,1,1.22.119,2.978,2.978,0,0,1,2.643,2.946c0,2.057-1.514,3.374-3.88,3.374h-3.179Z" transform="translate(-253.425 -0.086)" fill="#274471"/>
    <path id="Path_46" data-name="Path 46" d="M512.836,9.78l1.42-3.22H494.19v4.63h6.847V27.452h2.68a2.638,2.638,0,0,0,2.675-2.6V11.19h4.259A2.376,2.376,0,0,0,512.836,9.78Z" transform="translate(-446.363)" fill="#274471"/>
  </g>
</svg>
